<svg width="189" height="188" xmlns="http://www.w3.org/2000/svg" xmlns:xlink="http://www.w3.org/1999/xlink" xml:space="preserve" overflow="hidden"><g transform="translate(-485 -517)"><path d="M93.9589 19.5833C52.8824 19.5833 19.5833 52.8824 19.5833 93.9589 19.5833 135.035 52.8824 168.334 93.9589 168.334 135.035 168.334 168.334 135.035 168.334 93.9589 168.353 52.9009 135.083 19.6017 94.0255 19.5833 94.0033 19.5833 93.981 19.5833 93.9589 19.5833ZM93.9589 164.418C55.0454 164.418 23.5 132.872 23.5 93.9589 23.5 55.0454 55.0454 23.5 93.9589 23.5 132.872 23.5 164.418 55.0454 164.418 93.9589 164.374 132.854 132.854 164.374 93.9589 164.418Z" fill="#FFFFFF" transform="matrix(1.00532 0 0 1 485 517)"/><path d="M95.9583 68.5417 80.2917 68.5417 80.2917 72.4583 92.0417 72.4583 92.0417 131.208 78.3333 131.208 78.3333 135.125 109.667 135.125 109.667 131.208 95.9583 131.208 95.9583 68.5417Z" fill="#FFFFFF" transform="matrix(1.00532 0 0 1 485 517)"/><path d="M96.0837 51.8958C96.0837 54.3293 94.1109 56.3021 91.6774 56.3021 89.2439 56.3021 87.2712 54.3293 87.2712 51.8958 87.2712 49.4623 89.2439 47.4896 91.6774 47.4896 94.1109 47.4896 96.0837 49.4623 96.0837 51.8958Z" fill="#FFFFFF" transform="matrix(1.00532 0 0 1 485 517)"/></g></svg>