<svg width="188" height="189" xmlns="http://www.w3.org/2000/svg" xmlns:xlink="http://www.w3.org/1999/xlink" xml:space="preserve" overflow="hidden"><g transform="translate(-782 -200)"><path d="M172.367 33.2917 15.4532 33.2917 15.4532 154.757 172.367 154.757ZM168.45 150.841 19.3699 150.841 19.3699 64.625 168.45 64.625ZM168.45 60.7083 19.3699 60.7083 19.3699 37.2083 168.45 37.2083Z" fill="#FFFFFF" transform="matrix(1 0 0 1.00532 782 200)"/><path d="M127.292 48.9583C127.292 51.1215 125.538 52.875 123.375 52.875 121.212 52.875 119.458 51.1215 119.458 48.9583 119.458 46.7952 121.212 45.0417 123.375 45.0417 125.538 45.0417 127.292 46.7952 127.292 48.9583Z" fill="#FFFFFF" transform="matrix(1 0 0 1.00532 782 200)"/><path d="M141 48.9583C141 51.1215 139.246 52.875 137.083 52.875 134.92 52.875 133.167 51.1215 133.167 48.9583 133.167 46.7952 134.92 45.0417 137.083 45.0417 139.246 45.0417 141 46.7952 141 48.9583Z" fill="#FFFFFF" transform="matrix(1 0 0 1.00532 782 200)"/><path d="M154.708 48.9583C154.708 51.1215 152.955 52.875 150.792 52.875 148.629 52.875 146.875 51.1215 146.875 48.9583 146.875 46.7952 148.629 45.0417 150.792 45.0417 152.955 45.0417 154.708 46.7952 154.708 48.9583Z" fill="#FFFFFF" transform="matrix(1 0 0 1.00532 782 200)"/><path d="M44.6363 119.053 47.4054 121.822 67.3941 101.833 46.4262 80.8655 43.6571 83.6345 61.8559 101.833 44.6363 119.053Z" fill="#FFFFFF" transform="matrix(1 0 0 1.00532 782 200)"/><path d="M74.4167 117.5 105.75 117.5 105.75 121.417 74.4167 121.417Z" fill="#FFFFFF" transform="matrix(1 0 0 1.00532 782 200)"/></g></svg>